<mxfile host="app.diagrams.net" agent="Mozilla/5.0 (Windows NT 10.0; Win64; x64) AppleWebKit/537.36 (KHTML, like Gecko) Chrome/138.0.0.0 Safari/537.36" version="28.0.6">
  <diagram name="Page-1" id="QPna4G8ReAd9xaOdWk3A">
    <mxGraphModel dx="786" dy="1531" grid="1" gridSize="10" guides="1" tooltips="1" connect="1" arrows="1" fold="1" page="1" pageScale="1" pageWidth="850" pageHeight="1100" math="0" shadow="0">
      <root>
        <mxCell id="0" />
        <mxCell id="1" parent="0" />
        <mxCell id="BuaP5CXVqgNOtvjeHEu--2" value="API STACK&lt;div&gt;&lt;br&gt;&lt;/div&gt;&lt;div&gt;&lt;br&gt;&lt;/div&gt;&lt;div&gt;CLI&lt;/div&gt;&lt;div&gt;or&lt;/div&gt;&lt;div&gt;User InterFace&lt;/div&gt;" style="rounded=1;whiteSpace=wrap;html=1;" vertex="1" parent="1">
          <mxGeometry x="440" y="-370" width="90" height="280" as="geometry" />
        </mxCell>
        <mxCell id="BuaP5CXVqgNOtvjeHEu--5" value="Server Where&lt;div&gt;Our LLM is Deployed&lt;/div&gt;" style="text;html=1;align=center;verticalAlign=middle;resizable=0;points=[];autosize=1;strokeColor=none;fillColor=none;" vertex="1" parent="1">
          <mxGeometry x="190" y="-200" width="140" height="40" as="geometry" />
        </mxCell>
        <mxCell id="BuaP5CXVqgNOtvjeHEu--22" value="" style="edgeStyle=orthogonalEdgeStyle;rounded=0;orthogonalLoop=1;jettySize=auto;html=1;" edge="1" parent="1" source="BuaP5CXVqgNOtvjeHEu--6" target="BuaP5CXVqgNOtvjeHEu--12">
          <mxGeometry relative="1" as="geometry">
            <Array as="points">
              <mxPoint x="220" y="-390" />
            </Array>
          </mxGeometry>
        </mxCell>
        <mxCell id="BuaP5CXVqgNOtvjeHEu--6" value="Processing User Query" style="rounded=1;whiteSpace=wrap;html=1;" vertex="1" parent="1">
          <mxGeometry x="40" y="-420" width="120" height="60" as="geometry" />
        </mxCell>
        <mxCell id="BuaP5CXVqgNOtvjeHEu--21" value="" style="edgeStyle=orthogonalEdgeStyle;rounded=0;orthogonalLoop=1;jettySize=auto;html=1;" edge="1" parent="1" source="BuaP5CXVqgNOtvjeHEu--8" target="BuaP5CXVqgNOtvjeHEu--12">
          <mxGeometry relative="1" as="geometry" />
        </mxCell>
        <mxCell id="BuaP5CXVqgNOtvjeHEu--8" value="Model Storage" style="shape=cylinder3;whiteSpace=wrap;html=1;boundedLbl=1;backgroundOutline=1;size=15;" vertex="1" parent="1">
          <mxGeometry x="260" y="-420" width="60" height="80" as="geometry" />
        </mxCell>
        <mxCell id="BuaP5CXVqgNOtvjeHEu--12" value="" style="image;html=1;image=img/lib/clip_art/computers/Server_Rack_Partial_128x128.png" vertex="1" parent="1">
          <mxGeometry x="220" y="-290" width="80" height="80" as="geometry" />
        </mxCell>
        <mxCell id="BuaP5CXVqgNOtvjeHEu--23" value="" style="edgeStyle=orthogonalEdgeStyle;rounded=0;orthogonalLoop=1;jettySize=auto;html=1;" edge="1" parent="1" source="BuaP5CXVqgNOtvjeHEu--13" target="BuaP5CXVqgNOtvjeHEu--12">
          <mxGeometry relative="1" as="geometry" />
        </mxCell>
        <mxCell id="BuaP5CXVqgNOtvjeHEu--13" value="Hugging Face Transformers" style="ellipse;whiteSpace=wrap;html=1;" vertex="1" parent="1">
          <mxGeometry x="40" y="-330" width="120" height="80" as="geometry" />
        </mxCell>
        <mxCell id="BuaP5CXVqgNOtvjeHEu--26" style="edgeStyle=orthogonalEdgeStyle;rounded=0;orthogonalLoop=1;jettySize=auto;html=1;exitX=0.5;exitY=0;exitDx=0;exitDy=0;entryX=0;entryY=0.75;entryDx=0;entryDy=0;" edge="1" parent="1" source="BuaP5CXVqgNOtvjeHEu--14" target="BuaP5CXVqgNOtvjeHEu--12">
          <mxGeometry relative="1" as="geometry" />
        </mxCell>
        <mxCell id="BuaP5CXVqgNOtvjeHEu--14" value="TorchServe" style="ellipse;whiteSpace=wrap;html=1;" vertex="1" parent="1">
          <mxGeometry x="40" y="-200" width="120" height="80" as="geometry" />
        </mxCell>
        <mxCell id="BuaP5CXVqgNOtvjeHEu--16" value="" style="edgeStyle=orthogonalEdgeStyle;rounded=0;orthogonalLoop=1;jettySize=auto;html=1;" edge="1" parent="1" source="BuaP5CXVqgNOtvjeHEu--15" target="BuaP5CXVqgNOtvjeHEu--2">
          <mxGeometry relative="1" as="geometry">
            <mxPoint x="480" y="-460" as="sourcePoint" />
          </mxGeometry>
        </mxCell>
        <mxCell id="BuaP5CXVqgNOtvjeHEu--29" value="&lt;span style=&quot;font-size: 12px; background-color: rgb(236, 236, 236);&quot;&gt;User/Developer&lt;/span&gt;" style="edgeLabel;html=1;align=center;verticalAlign=middle;resizable=0;points=[];" vertex="1" connectable="0" parent="BuaP5CXVqgNOtvjeHEu--16">
          <mxGeometry x="-0.5944" y="1" relative="1" as="geometry">
            <mxPoint as="offset" />
          </mxGeometry>
        </mxCell>
        <mxCell id="BuaP5CXVqgNOtvjeHEu--15" value="" style="shape=umlActor;verticalLabelPosition=bottom;verticalAlign=top;html=1;outlineConnect=0;" vertex="1" parent="1">
          <mxGeometry x="470" y="-550" width="30" height="60" as="geometry" />
        </mxCell>
        <mxCell id="BuaP5CXVqgNOtvjeHEu--17" value="DataBase" style="shape=cylinder3;whiteSpace=wrap;html=1;boundedLbl=1;backgroundOutline=1;size=15;" vertex="1" parent="1">
          <mxGeometry x="720" y="-270" width="60" height="80" as="geometry" />
        </mxCell>
        <mxCell id="BuaP5CXVqgNOtvjeHEu--18" style="edgeStyle=orthogonalEdgeStyle;rounded=0;orthogonalLoop=1;jettySize=auto;html=1;entryX=0;entryY=0.5;entryDx=0;entryDy=0;entryPerimeter=0;" edge="1" parent="1" source="BuaP5CXVqgNOtvjeHEu--2" target="BuaP5CXVqgNOtvjeHEu--17">
          <mxGeometry relative="1" as="geometry" />
        </mxCell>
        <mxCell id="BuaP5CXVqgNOtvjeHEu--19" value="User Feedback&lt;div&gt;Continuous Learning&lt;/div&gt;" style="edgeLabel;html=1;align=center;verticalAlign=middle;resizable=0;points=[];" vertex="1" connectable="0" parent="BuaP5CXVqgNOtvjeHEu--18">
          <mxGeometry x="-0.16" y="-4" relative="1" as="geometry">
            <mxPoint as="offset" />
          </mxGeometry>
        </mxCell>
        <mxCell id="BuaP5CXVqgNOtvjeHEu--20" style="edgeStyle=orthogonalEdgeStyle;rounded=0;orthogonalLoop=1;jettySize=auto;html=1;exitX=1;exitY=0.5;exitDx=0;exitDy=0;entryX=0.015;entryY=0.412;entryDx=0;entryDy=0;entryPerimeter=0;" edge="1" parent="1" source="BuaP5CXVqgNOtvjeHEu--12" target="BuaP5CXVqgNOtvjeHEu--2">
          <mxGeometry relative="1" as="geometry" />
        </mxCell>
      </root>
    </mxGraphModel>
  </diagram>
</mxfile>
